<svg width="181" height="57" viewBox="0 0 181 57" xmlns="http://www.w3.org/2000/svg">
  <path fill="currentColor" d="M24.056 18.128c3.312 0 5.256.912 5.832 2.736.288.912.432 2.112.432 3.6s-.156 2.676-.468 3.564c-.312.888-.804 1.524-1.476 1.908-1.008.576-2.472.864-4.392.864l-4.608-.288v19.296c0 1.824-.228 3.18-.684 4.068-.456.888-1.152 1.476-2.088 1.764-.936.288-2.148.432-3.636.432s-2.676-.156-3.564-.468c-.888-.312-1.524-.816-1.908-1.512-.384-.696-.612-1.332-.684-1.908-.072-.576-.108-1.416-.108-2.52v-19.08H4.112c-1.248-.096-2.136-.384-2.664-.864C.536 28.808.08 27.056.08 24.464c0-3.936 1.416-5.904 4.248-5.904h2.376v-3.816c0-3.696 1.32-7.044 3.96-10.044 2.64-3 6.456-4.5 11.448-4.5 1.104 0 1.932.036 2.484.108.552.072 1.188.3 1.908.684 1.296.624 1.944 2.472 1.944 5.544 0 2.304-.408 3.96-1.224 4.968-.672.768-1.728 1.2-3.168 1.296H22.04c-1.776 0-2.664.6-2.664 1.8v3.96l4.68-.432zM34.064 6.536c0-1.104.036-1.932.108-2.484.072-.552.3-1.188.684-1.908C35.48.848 37.328.2 40.4.2c2.928 0 4.752.648 5.472 1.944.384.72.612 1.368.684 1.944.072.576.108 1.416.108 2.52v33.336c0 1.728.144 2.82.432 3.276.288.456.924.684 1.908.684.984 0 1.644.036 1.98.108.336.072.768.276 1.296.612.912.624 1.368 2.328 1.368 5.112 0 3.024-.456 4.872-1.368 5.544-1.296.864-4.296 1.008-9 .432-3.696-.48-6.12-1.704-7.272-3.672-1.296-2.352-1.944-6.096-1.944-11.232V6.536zm23.544 17.856c0-1.104.036-1.932.108-2.484.072-.552.276-1.188.612-1.908.672-1.248 2.544-1.872 5.616-1.872 2.304 0 3.936.408 4.896 1.224.816.672 1.248 1.704 1.296 3.096.048.48.072 1.176.072 2.088v25.2c0 1.104-.036 1.932-.108 2.484-.072.552-.3 1.188-.684 1.908C68.792 55.376 66.944 56 63.872 56c-3.024 0-4.872-.648-5.544-1.944-.336-.72-.54-1.344-.612-1.872-.072-.528-.108-1.368-.108-2.52V24.392zm9.936-11.88c-.912.288-2.124.432-3.636.432s-2.724-.144-3.636-.432c-.912-.288-1.548-.792-1.908-1.512-.36-.72-.576-1.356-.648-1.908-.072-.552-.108-1.38-.108-2.484s.036-1.932.108-2.484c.072-.552.276-1.164.612-1.836C59 .992 60.872.344 63.944.344c3.024 0 4.848.648 5.472 1.944.384.72.612 1.356.684 1.908.072.552.108 1.38.108 2.484s-.036 1.932-.108 2.484c-.072.552-.288 1.176-.648 1.872-.36.696-.996 1.188-1.908 1.476zm22.32 29.268c1.344 1.128 2.772 1.692 4.284 1.692s2.928-.444 4.248-1.332c1.32-.888 2.388-1.332 3.204-1.332 1.44 0 3.192 1.272 5.256 3.816 1.104 1.392 1.656 2.64 1.656 3.744 0 1.824-1.32 3.528-3.96 5.112-2.736 1.92-6.096 2.88-10.08 2.88-4.464 0-8.76-1.608-12.888-4.824-1.968-1.536-3.576-3.588-4.824-6.156-1.248-2.568-1.872-5.4-1.872-8.496s.624-5.904 1.872-8.424c1.248-2.52 2.856-4.548 4.824-6.084 3.984-3.168 8.232-4.752 12.744-4.752 1.824 0 3.6.252 5.328.756 1.728.504 3 .996 3.816 1.476l1.152.72a113.98 113.98 0 0 1 2.016 1.368c1.248.96 1.872 2.052 1.872 3.276 0 1.224-.504 2.604-1.512 4.14-1.728 2.64-3.384 3.96-4.968 3.96-.912 0-2.208-.528-3.888-1.584-.864-.816-2.1-1.224-3.708-1.224s-3.108.576-4.5 1.728c-1.392 1.152-2.088 2.748-2.088 4.788s.672 3.624 2.016 4.752zm45.648-4.788l9.576 7.92c1.2 1.008 1.956 1.776 2.268 2.304.312.528.468 1.032.468 1.512 0 1.152-.744 2.712-2.232 4.68-1.632 2.016-3.072 3.024-4.32 3.024-1.056 0-2.52-.696-4.392-2.088l-.72-.504c-1.104-.912-2.808-2.508-5.112-4.788-2.304-2.28-4.056-3.9-5.256-4.86v5.544c0 1.104-.036 1.932-.108 2.484-.072.552-.3 1.188-.684 1.908-.624 1.248-2.472 1.872-5.544 1.872-3.024 0-4.872-.648-5.544-1.944-.336-.72-.54-1.356-.612-1.908-.072-.552-.108-1.38-.108-2.484V6.536c0-1.104.036-1.932.108-2.484.072-.552.276-1.188.612-1.908C114.584.848 116.456.2 119.528.2c2.304 0 3.936.408 4.896 1.224.816.672 1.248 1.728 1.296 3.168.048.432.072 1.104.072 2.016v22.824c.864-.72 2.172-1.944 3.924-3.672 1.752-1.728 3.06-2.952 3.924-3.672l.864-.576c1.68-1.296 3.12-1.944 4.32-1.944 1.2 0 2.58.972 4.14 2.916 1.56 1.944 2.34 3.468 2.34 4.572s-.888 2.4-2.664 3.888l-7.128 6.048zm44.316-17.028c.6.696.9 1.812.9 3.348 0 1.536-.456 3.216-1.368 5.04-.912 1.824-2.232 2.736-3.96 2.736a5.626 5.626 0 0 1-2.484-.576c-.792-.384-1.836-.576-3.132-.576s-2.508.456-3.636 1.368c-1.128.912-1.692 2.016-1.692 3.312v15.12c0 1.104-.036 1.932-.108 2.484-.072.552-.3 1.188-.684 1.908-.72 1.248-2.592 1.872-5.616 1.872-2.304 0-3.96-.408-4.968-1.224-.768-.672-1.2-1.704-1.296-3.096V24.32c0-1.104.036-1.932.108-2.484.072-.552.276-1.164.612-1.836.672-1.296 2.544-1.944 5.616-1.944 2.88 0 4.68.552 5.4 1.656.528.768.792 1.56.792 2.376.24-.336.588-.744 1.044-1.224.456-.48 1.428-1.128 2.916-1.944 1.488-.816 2.796-1.224 3.924-1.224 1.128 0 2.076.06 2.844.18.768.12 1.608.324 2.52.612.912.288 1.668.78 2.268 1.476z" fill-rule="evenodd"/>
</svg>
