<svg xmlns="http://www.w3.org/2000/svg" width="432.544" height="432.544" viewBox="0 0 432.544 432.544">
  <path fill="currentColor" d="M421.985 229.833L217.847 25.981c-7.235-7.238-16.94-13.374-29.121-18.416C176.541 2.522 165.407 0 155.318 0H36.547C26.648 0 18.083 3.619 10.85 10.848 3.617 18.081.002 26.646.002 36.545v118.771c0 10.088 2.519 21.219 7.564 33.404s11.182 21.792 18.417 28.837L230.118 421.98c7.043 7.043 15.602 10.564 25.697 10.564 9.89 0 18.558-3.521 25.98-10.564l140.186-140.47c7.043-7.046 10.561-15.604 10.561-25.693 0-9.898-3.518-18.559-10.557-25.984zM117.202 117.201c-7.142 7.138-15.752 10.709-25.841 10.709-10.085 0-18.699-3.571-25.837-10.709-7.138-7.139-10.706-15.749-10.706-25.837 0-10.089 3.568-18.702 10.706-25.837 7.139-7.139 15.752-10.71 25.837-10.71 10.089 0 18.702 3.571 25.841 10.71 7.135 7.135 10.706 15.749 10.706 25.837s-3.567 18.698-10.706 25.837z"/>
</svg>
